<svg xmlns="http://www.w3.org/2000/svg" aria-hidden="true" style="position:absolute;width:0;height:0;overflow:hidden">
    <defs>
        <symbol id="technologies" viewBox="0 0 32 32">
            <path fill="#2196f3"
                d="M31.974 4.524a.535.535 0 0 0-.427-.362h-.003l-1.911-.278-.855-1.731c-.179-.365-.777-.365-.956 0l-.855 1.731-1.911.278a.534.534 0 0 0-.296.91l1.383 1.348-.326 1.903a.532.532 0 0 0 .774.562l1.709-.899 1.709.899a.534.534 0 0 0 .773-.565v.003l-.326-1.903 1.383-1.348a.535.535 0 0 0 .134-.55l.001.004zm-2.463 1.327a.53.53 0 0 0-.153.472l.191 1.114-1-.526a.525.525 0 0 0-.501.001l.003-.001-1 .526.191-1.114a.53.53 0 0 0-.152-.472l-.811-.79 1.119-.162a.532.532 0 0 0 .402-.292l.5-1.013.5 1.013a.532.532 0 0 0 .402.292l1.119.162-.809.79zm-3.377 14.671h-1.067v1.067h1.067v-1.067zm0 2.134h-1.067v1.066h1.067v-1.066zm1.066-1.067h-1.067v1.067H27.2v-1.067zm-2.133 0H24v1.067h1.067v-1.067zm-2.667 4.8h-1.067v1.067H22.4v-1.067zm0 2.134h-1.067v1.067H22.4v-1.067zm1.067-1.067H22.4v1.067h1.067v-1.067zm-2.133 0h-1.067v1.067h1.067v-1.067zM16 24.256h-1.066v1.067H16v-1.067zm0 2.133h-1.066v1.067H16v-1.067zm1.067-1.067H16v1.067h1.067v-1.067zm-2.133 0h-1.067v1.067h1.067v-1.067zm-9.067-19.2H4.801v1.066h1.066V6.122zm0 2.134H4.801v1.066h1.066V8.256zm1.066-1.067H5.866v1.067h1.066V7.189zm-2.133 0H3.733v1.067H4.8V7.189z"
                style="fill:var(--color1, #2196f3)" />
            <path fill="#212121"
                d="M24.715 14.16a1.774 1.774 0 0 0-1.179-.703l-.009-.001a1.769 1.769 0 0 0-1.344.355l.004-.003-1.253.96-1.898 1.417-1.358-.541c2.421-1.086 4.113-3.508 4.113-6.32 0-3.823-3.122-6.934-6.961-6.934S7.869 5.5 7.869 9.324c0 1.386.415 2.674 1.12 3.759l-2.768-.024c-.009 0-.016.005-.023.005a.511.511 0 0 0-.159.033l.004-.001c-.013.005-.026.007-.038.013-.006.003-.013.003-.019.006l-3.233 1.596-.001.001-1.893.91a.5.5 0 0 0-.065.036l.001-.001a1.782 1.782 0 0 0-.594 2.306l-.005-.01c.22.424.592.742 1.043.885l.013.003a1.772 1.772 0 0 0 1.388-.133l-.009.005 1.388-.738 2.264-1.169 1.357-.008-5.442 5.415-.001.001-1.339 1.333a1.643 1.643 0 0 0-.491 1.173v.005a1.668 1.668 0 0 0 1.667 1.664h.002a1.67 1.67 0 0 0 1.18-.485l1.314-1.309 1.741-1.3.901.897L4.07 27.28a1.643 1.643 0 0 0-.491 1.173v.004a1.662 1.662 0 0 0 1.666 1.664h.003a1.67 1.67 0 0 0 1.18-.485l4.488-4.472c.007-.006.016-.009.022-.016l5.166-5.658 3.471.494a.474.474 0 0 0 .262-.032c.017-.006.032-.015.049-.023.019-.01.039-.015.058-.027l3.213-2.133c.012-.008.018-.021.029-.03.013-.01.029-.014.041-.026l1.271-1.191c.348-.326.564-.787.564-1.3 0-.4-.132-.769-.355-1.066l.003.005zM2.13 17.77a.706.706 0 0 1-.564.05l.005.001a.717.717 0 0 1-.215-1.258l.002-.001 1.314-.632.316.924.133.389-.992.527zm3.497-1.828-1.548.8-.255-.746-.184-.537 2.027-1.001-.04 1.484zm15.1-6.62c0 .918-.219 1.785-.599 2.56l-4.181-1.899a1.865 1.865 0 0 0-.782-1.384l-.006-.004 1.464-4.861c2.377.757 4.104 2.975 4.104 5.588zm-11.789 0c0-3.235 2.644-5.867 5.894-5.867.253 0 .5.022.745.053l-1.432 4.753c-.019 0-.037-.006-.057-.006h-.001a1.872 1.872 0 0 0-1.872 1.867 1.873 1.873 0 0 0 1.872 1.867h.001c.695 0 1.295-.383 1.618-.944l3.863 1.755a5.891 5.891 0 0 1-4.737 2.39c-3.25 0-5.894-2.632-5.894-5.867zm5.957.8c0 .441-.362.8-.806.8h-.001a.804.804 0 0 1-.804-.8c0-.441.361-.8.806-.8s.806.359.806.8zM2.464 25.146a.606.606 0 0 1-.855.001.591.591 0 0 1 0-.844l.962-.959.852.848-.959.954zm3.214 3.734a.606.606 0 0 1-.855.001.591.591 0 0 1 0-.844l.963-.959.852.848-.96.955zm3.482-3.469-.001.001-1.765 1.76-.852-.848 1.765-1.757a.527.527 0 0 0 .09-.136c.007-.014.02-.026.026-.04.016-.041.019-.085.026-.128.003-.025.014-.048.014-.073 0-.035-.013-.07-.02-.105-.006-.032-.006-.064-.019-.096a.536.536 0 0 0-.092-.138c-.01-.012-.014-.026-.025-.038h-.001l-.001-.002-1.607-1.6c-.017-.017-.039-.024-.058-.038a.491.491 0 0 0-.084-.056l-.003-.001a.527.527 0 0 0-.09-.031l-.003-.001a.502.502 0 0 0-.101-.02h-.025a.603.603 0 0 0-.075.005h.003c-.036.005-.069.009-.104.021s-.064.027-.094.045c-.02.011-.043.015-.061.029l-1.774 1.324-.901-.897 2.399-2.386 4.36 4.289-.928.919zm6.819-7.017c-.016-.002-.03.004-.046.003l-.027-.001a.562.562 0 0 0-.092.008h.003a.484.484 0 0 0-.187.07l.002-.001a.492.492 0 0 0-.083.061c-.013.011-.028.016-.04.029l-4.698 5.146-4.328-4.256 2.833-2.818a.535.535 0 0 0-.378-.911h-.002l-2.219.013.028-1.607 3.104.027a6.928 6.928 0 0 0 4.978 2.101h.003c.438 0 .864-.046 1.28-.122.04.032.08.064.129.085l2.41.96.152.758.178.886-3.003-.427zm4.041.178-.313-1.558 1.446-1.08.946 1.257-2.08 1.381zm3.753-2.831-.837.785-.931-1.236.831-.637a.735.735 0 0 1 .543-.143.718.718 0 0 1 .621.71.71.71 0 0 1-.226.521z"
                style="fill:var(--color2, #212121)" />
            <path fill="#212121"
                d="m13.602 18.544-2.143-2.134a.53.53 0 0 0-.752 0l-2.143 2.133a.535.535 0 0 0 0 .756l2.142 2.134a.53.53 0 0 0 .752 0l2.143-2.134a.532.532 0 0 0 0-.756zm-2.519 1.759-1.387-1.381 1.386-1.381 1.387 1.381-1.387 1.381zm6.081-15.232-.258 1.036c.071.018 1.738.452 1.738 2.149h1.067c0-2.017-1.666-2.965-2.547-3.184zm2.547 4.251h-1.067v1.066h1.067V9.322z"
                style="fill:var(--color2, #212121)" />
        </symbol>
        <symbol id="punctuality" viewBox="0 0 32 32">
            <path fill="#212121"
                d="M31.296 15.301C31.295 6.849 24.441-.002 15.988 0S.685 6.855.687 15.308c.002 6.788 4.422 12.543 10.541 14.545l.108.031a.667.667 0 0 0 .529-.065.636.636 0 0 0 .283-.357l3.865-12.25a1.913 1.913 0 1 0-.852-3.63l.011-.005-5.106-5.107a.638.638 0 0 0-.902.902l5.103 5.109a1.847 1.847 0 0 0-.191.826c0 .602.283 1.137.723 1.48l.004.003-3.682 11.673C3.843 25.782.117 17.709 2.797 10.431S13.551-.573 20.829 2.108c7.278 2.681 11.004 10.754 8.323 18.032-1.345 3.581-4.003 6.406-7.374 7.938l-.088.036-.398-1.874a.639.639 0 0 0-1.05-.343l.001-.001-3.837 3.426a.637.637 0 0 0 .227 1.083l.005.001 4.899 1.563a.637.637 0 0 0 .818-.744l.001.004-.391-1.839c5.528-2.374 9.329-7.772 9.329-14.057v-.034.002zm-15.304-.637a.638.638 0 0 1 0 1.276.638.638 0 0 1 0-1.276zm2.1 14.864 2.184-1.948.603 2.84-2.787-.892z"
                style="fill:var(--color2, #212121)" />
            <path fill="#2196f3"
                d="M15.354 3.185V4.46a.638.638 0 0 0 1.276 0V3.185a.638.638 0 1 0-1.276 0zM3.876 14.664a.638.638 0 0 0 0 1.276h1.275a.638.638 0 0 0 0-1.276H3.876zm24.232 1.275a.638.638 0 0 0 0-1.276h-1.275a.638.638 0 0 0 0 1.276h1.275z"
                style="fill:var(--color1, #2196f3)" />
        </symbol>
        <symbol id="strategy" viewBox="0 0 32 32">
            <path fill="#2196f3"
                d="M14.926 14.965h1.066v4.798h-1.066v-4.798zm4.264 2.132h1.066v2.665H19.19v-2.665zm-8.529 1.599h1.066v1.066h-1.066v-1.066zm-3.198-.533h1.066v1.599H7.463v-1.599z"
                style="fill:var(--color1, #2196f3)" />
            <path fill="#212121"
                d="M1.599 28.291h25.586a1.6 1.6 0 0 0 1.599-1.599V24.56a1.6 1.6 0 0 0-1.599-1.599h-.533V9.667l3.028-2.868a1.608 1.608 0 1 0-.742-.752l-.004-.01-2.281 2.162v-1.23a1.6 1.6 0 0 0-1.599-1.599H3.731a1.6 1.6 0 0 0-1.599 1.599v15.992h-.533A1.6 1.6 0 0 0 0 24.56v2.132a1.6 1.6 0 0 0 1.599 1.599zM30.384 4.837a.533.533 0 0 1 0 1.066.533.533 0 0 1 0-1.066zM3.198 6.969c0-.294.239-.533.533-.533h21.323c.294 0 .533.239.533.533v2.239l-1.066 1.013V8.036a.534.534 0 0 0-.534-.534H4.798a.534.534 0 0 0-.534.533v13.327c0 .294.239.533.534.533h19.189a.534.534 0 0 0 .534-.533v-9.675l1.066-1.01V22.96H3.198V6.969zm4.798 6.93h-.005a1.6 1.6 0 1 0 1.112 2.748l1.853.93a.535.535 0 0 0 .636-.122l3.939-4.432 3.872 2.902a.534.534 0 0 0 .686-.039l3.365-3.188v8.131H5.331V8.568h18.123v2.661l-3.771 3.572-3.904-2.927a.534.534 0 0 0-.718.071v.001l-3.993 4.493-1.493-.746c.011-.064.017-.128.02-.193a1.6 1.6 0 0 0-1.599-1.599zm.533 1.599a.533.533 0 0 1-1.066 0 .533.533 0 0 1 1.066 0zm3.198 8.528h5.33v.533a.533.533 0 0 1-.533.533h-4.265a.533.533 0 0 1-.533-.533v-.533zm-10.66.534c0-.294.238-.533.533-.533h9.062v.533a1.6 1.6 0 0 0 1.599 1.599h4.265a1.6 1.6 0 0 0 1.599-1.599v-.533h9.062c.294 0 .533.239.533.533v2.132a.533.533 0 0 1-.533.533H1.601a.533.533 0 0 1-.533-.533V24.56z"
                style="fill:var(--color2, #212121)" />
        </symbol>
        <symbol id="face" viewBox="0 0 40 40">
            <path
                d="M40 19.9999C40 25.5228 37.7614 30.5228 34.1421 34.1421C30.5228 37.7614 25.5228 39.9999 20 39.9999C14.4772 39.9999 9.47715 37.7614 5.85786 34.1421C2.23858 30.5228 0 25.5228 0 19.9999C0 14.4771 2.23858 9.47709 5.85786 5.8578C9.47715 2.23852 14.4772 -6.10352e-05 20 -6.10352e-05C25.5228 -6.10352e-05 30.5228 2.23852 34.1421 5.8578C37.7614 9.47709 40 14.4771 40 19.9999Z"
                fill="#4D5AE5" />
            <g clip-path="url(#clip0_654477_454)">
                <path
                    d="M22.6647 14.6566H24.1254V12.1126C23.8734 12.0779 23.0067 11.9999 21.9974 11.9999C19.8914 11.9999 18.4487 13.3246 18.4487 15.7593V17.9999H16.1247V20.8439H18.4487V27.9999H21.298V20.8446H23.528L23.882 18.0006H21.2974V16.0413C21.298 15.2193 21.5194 14.6566 22.6647 14.6566Z"
                    fill="#F4F4FD" />
            </g>
            <defs>
                <clipPath id="clip0_654477_454">
                    <rect width="16" height="16" fill="white" transform="translate(12 11.9999)" />
                </clipPath>
            </defs>
        </symbol>
        <symbol id="instagram" viewBox="0 0 40 40">
            <path
                d="M40 19.9999C40 25.5228 37.7614 30.5228 34.1421 34.1421C30.5228 37.7614 25.5228 39.9999 20 39.9999C14.4772 39.9999 9.47715 37.7614 5.85786 34.1421C2.23858 30.5228 0 25.5228 0 19.9999C0 14.4771 2.23858 9.47709 5.85786 5.8578C9.47715 2.23852 14.4772 -6.10352e-05 20 -6.10352e-05C25.5228 -6.10352e-05 30.5228 2.23852 34.1421 5.8578C37.7614 9.47709 40 14.4771 40 19.9999Z"
                fill="#4D5AE5" />
            <g clip-path="url(#clip0_654477_442)">
                <path
                    d="M27.9843 16.704C27.9468 15.8538 27.8093 15.2694 27.6124 14.7629C27.4092 14.2253 27.0967 13.7441 26.6872 13.344C26.2871 12.9376 25.8026 12.6219 25.2713 12.4219C24.7619 12.225 24.1805 12.0875 23.3303 12.05C22.4738 12.0093 22.2019 11.9999 20.0296 11.9999C17.8573 11.9999 17.5854 12.0093 16.7321 12.0468C15.882 12.0843 15.2975 12.2219 14.7912 12.4187C14.2535 12.6219 13.7722 12.9344 13.3721 13.344C12.9658 13.7441 12.6501 14.2285 12.45 14.7599C12.2531 15.2694 12.1156 15.8507 12.0781 16.7008C12.0375 17.5573 12.0281 17.8292 12.0281 20.0015C12.0281 22.1738 12.0375 22.4457 12.075 23.299C12.1124 24.1492 12.25 24.7336 12.447 25.2401C12.6501 25.7777 12.9658 26.259 13.3721 26.6591C13.7722 27.0654 14.2567 27.3811 14.788 27.5811C15.2975 27.778 15.8788 27.9155 16.7291 27.953C17.5823 27.9906 17.8543 27.9999 20.0266 27.9999C22.1989 27.9999 22.4708 27.9906 23.3241 27.953C24.1742 27.9155 24.7587 27.778 25.265 27.5811C26.3403 27.1654 27.1904 26.3152 27.6062 25.2401C27.803 24.7306 27.9406 24.1492 27.9781 23.299C28.0156 22.4457 28.025 22.1738 28.025 20.0015C28.025 17.8292 28.0218 17.5573 27.9843 16.704ZM26.5435 23.2365C26.509 24.0179 26.3778 24.4399 26.2684 24.7212C25.9995 25.4182 25.4463 25.9714 24.7493 26.2403C24.468 26.3497 24.043 26.4809 23.2646 26.5152C22.4207 26.5528 22.1676 26.5621 20.0328 26.5621C17.898 26.5621 17.6417 26.5528 16.8009 26.5152C16.0195 26.4809 15.5975 26.3497 15.3162 26.2403C14.9693 26.1121 14.6536 25.9089 14.3973 25.6432C14.1316 25.3838 13.9285 25.0712 13.8003 24.7243C13.6909 24.443 13.5596 24.0179 13.5253 23.2397C13.4877 22.3958 13.4784 22.1425 13.4784 20.0077C13.4784 17.8729 13.4877 17.6166 13.5253 16.7759C13.5596 15.9945 13.6909 15.5725 13.8003 15.2912C13.9285 14.9442 14.1316 14.6286 14.4005 14.3722C14.6598 14.1066 14.9724 13.9034 15.3194 13.7753C15.6007 13.6659 16.0258 13.5347 16.804 13.5002C17.6479 13.4627 17.9012 13.4533 20.0359 13.4533C22.1738 13.4533 22.4269 13.4627 23.2678 13.5002C24.0492 13.5347 24.4712 13.6659 24.7525 13.7753C25.0993 13.9034 25.4151 14.1066 25.6714 14.3722C25.937 14.6317 26.1402 14.9442 26.2684 15.2912C26.3778 15.5725 26.509 15.9975 26.5435 16.7759C26.581 17.6198 26.5904 17.8729 26.5904 20.0077C26.5904 22.1425 26.581 22.3926 26.5435 23.2365Z"
                    fill="#F4F4FD" />
                <path
                    d="M20.0297 15.8913C17.7606 15.8913 15.9195 17.7322 15.9195 20.0015C15.9195 22.2707 17.7606 24.1117 20.0297 24.1117C22.2989 24.1117 24.1398 22.2707 24.1398 20.0015C24.1398 17.7322 22.2989 15.8913 20.0297 15.8913ZM20.0297 22.6676C18.5576 22.6676 17.3635 21.4737 17.3635 20.0015C17.3635 18.5293 18.5576 17.3353 20.0297 17.3353C21.5019 17.3353 22.6958 18.5293 22.6958 20.0015C22.6958 21.4737 21.5019 22.6676 20.0297 22.6676Z"
                    fill="#F4F4FD" />
                <path
                    d="M25.262 15.7288C25.262 16.2587 24.8324 16.6884 24.3024 16.6884C23.7725 16.6884 23.3428 16.2587 23.3428 15.7288C23.3428 15.1988 23.7725 14.7693 24.3024 14.7693C24.8324 14.7693 25.262 15.1988 25.262 15.7288Z"
                    fill="#F4F4FD" />
            </g>
            <defs>
                <clipPath id="clip0_654477_442">
                    <rect width="16" height="16" fill="white" transform="translate(12 11.9999)" />
                </clipPath>
            </defs>
        </symbol>
        <symbol id="inkl" viewBox="0 0 40 40">
            <svg width="40" height="40" viewBox="0 0 40 40" fill="none" xmlns="http://www.w3.org/2000/svg">
                <path
                    d="M40 19.9999C40 25.5228 37.7614 30.5228 34.1421 34.1421C30.5228 37.7614 25.5228 39.9999 20 39.9999C14.4772 39.9999 9.47715 37.7614 5.85786 34.1421C2.23858 30.5228 0 25.5228 0 19.9999C0 14.4771 2.23858 9.47709 5.85786 5.8578C9.47715 2.23852 14.4772 -6.10352e-05 20 -6.10352e-05C25.5228 -6.10352e-05 30.5228 2.23852 34.1421 5.8578C37.7614 9.47709 40 14.4771 40 19.9999Z"
                    fill="#4D5AE5" />
                <g clip-path="url(#clip0_654477_458)">
                    <path
                        d="M27.9961 28V27.9993H28.0001V22.1313C28.0001 19.2606 27.3821 17.0493 24.0261 17.0493C22.4128 17.0493 21.3301 17.9346 20.8881 18.774H20.8414V17.3173H17.6594V27.9993H20.9728V22.71C20.9728 21.3173 21.2368 19.9706 22.9614 19.9706C24.6608 19.9706 24.6861 21.56 24.6861 22.7993V28H27.9961Z"
                        fill="#F4F4FD" />
                    <path d="M12.264 17.3179H15.5814V27.9999H12.264V17.3179Z" fill="#F4F4FD" />
                    <path
                        d="M13.9214 11.9999C12.8607 11.9999 12.0001 12.8606 12.0001 13.9213C12.0001 14.9819 12.8607 15.8606 13.9214 15.8606C14.9821 15.8606 15.8427 14.9819 15.8427 13.9213C15.8421 12.8606 14.9814 11.9999 13.9214 11.9999V11.9999Z"
                        fill="#F4F4FD" />
                </g>
                <defs>
                    <clipPath id="clip0_654477_458">
                        <rect width="16" height="16" fill="white" transform="translate(12.0001 11.9999)" />
                    </clipPath>
                </defs>
            </svg>
        </symbol>
        <symbol id="twit" viewBox="0 0 40 40">
            <path
                d="M40 19.9999C40 25.5228 37.7614 30.5228 34.1421 34.1421C30.5228 37.7614 25.5228 39.9999 20 39.9999C14.4772 39.9999 9.47715 37.7614 5.85786 34.1421C2.23858 30.5228 0 25.5228 0 19.9999C0 14.4771 2.23858 9.47709 5.85786 5.8578C9.47715 2.23852 14.4772 -6.10352e-05 20 -6.10352e-05C25.5228 -6.10352e-05 30.5228 2.23852 34.1421 5.8578C37.7614 9.47709 40 14.4771 40 19.9999Z"
                fill="#4D5AE5" />
            <g clip-path="url(#clip0_654477_448)">
                <path
                    d="M28 15.0389C27.405 15.2999 26.771 15.4729 26.11 15.5569C26.79 15.1509 27.309 14.5129 27.553 13.7439C26.919 14.1219 26.219 14.3889 25.473 14.5379C24.871 13.8969 24.013 13.4999 23.077 13.4999C21.261 13.4999 19.799 14.9739 19.799 16.7809C19.799 17.0409 19.821 17.2909 19.875 17.5289C17.148 17.3959 14.735 16.0889 13.114 14.0979C12.831 14.5889 12.665 15.1509 12.665 15.7559C12.665 16.8919 13.25 17.8989 14.122 18.4819C13.595 18.4719 13.078 18.3189 12.64 18.0779C12.64 18.0879 12.64 18.1009 12.64 18.1139C12.64 19.7079 13.777 21.0319 15.268 21.3369C15.001 21.4099 14.71 21.4449 14.408 21.4449C14.198 21.4449 13.986 21.4329 13.787 21.3889C14.212 22.6879 15.418 23.6429 16.852 23.6739C15.736 24.5469 14.319 25.0729 12.785 25.0729C12.516 25.0729 12.258 25.0609 12 25.0279C13.453 25.9649 15.175 26.4999 17.032 26.4999C23.068 26.4999 26.368 21.4999 26.368 17.1659C26.368 17.0209 26.363 16.8809 26.356 16.7419C27.007 16.2799 27.554 15.7029 28 15.0389Z"
                    fill="#F4F4FD" />
            </g>
            <defs>
                <clipPath id="clip0_654477_448">
                    <rect width="16" height="16" fill="white" transform="translate(12 11.9999)" />
                </clipPath>
            </defs>
        </symbol>
        <symbol id="diligence" viewBox="0 0 30 32">
            <path fill="#212121"
                d="m29.859 22.098-8.443-8.505.937-4.616c.225.09.485.144.758.146h.033a2.16 2.16 0 1 0-2.029-1.42l-.005-.015-4.96.606L8.059.161a.53.53 0 0 0-.376-.16.536.536 0 0 0-.373.155L5.798 1.66a.535.535 0 0 0 0 .754l.814.825c-1.143 2.062-1.816 4.522-1.816 7.139 0 4.106 1.656 7.824 4.336 10.525l-.001-.001a.49.49 0 0 0 .146.097 2.986 2.986 0 0 0-.052.546v6.188h-6.4a2.669 2.669 0 0 0-2.667 2.666v1.067c0 .295.239.534.534.534h24.534a.534.534 0 0 0 .533-.534v-1.067a2.67 2.67 0 0 0-2.666-2.666h-6.4v-2.742a14.784 14.784 0 0 0 10.166-1.502l-.077.039.818.823a.534.534 0 0 0 .376.16.536.536 0 0 0 .373-.155l1.512-1.504a.535.535 0 0 0 0-.754zM22.366 6.233a1.067 1.067 0 1 1 .752 1.822h-.004a1.066 1.066 0 0 1-.747-1.822h-.002zM21.11 9.737l-.598 2.946-1.175-1.183 1.774-1.763zm-.606-.902-1.92 1.909-1.486-1.493 3.406-.416zM23.09 28.8a1.6 1.6 0 0 1 1.6 1.6v.534H1.224V30.4a1.6 1.6 0 0 1 1.6-1.6h20.267zm-7.467-2.134v1.067h-5.334v-1.067h5.334zM10.29 25.6v-4.053c0-1.294 1.196-2.346 2.666-2.346s2.667 1.053 2.667 2.346V25.6H10.29zm6.4-1.696v-2.357c0-1.882-1.675-3.413-3.733-3.413h-.058c-1.353 0-2.54.707-3.213 1.771l-.009.016a13.817 13.817 0 0 1-3.812-9.55c0-2.314.567-4.496 1.569-6.414l-.036.077L26 22.743c-1.823.947-3.979 1.502-6.266 1.502-1.079 0-2.128-.124-3.136-.357l.093.018zm11.289-.684L6.922 2.039l.754-.752 7.935 7.98c.004 0 .006.007.01.01l13.115 13.191-.757.752z"
                style="fill:var(--color2, #212121)" />
            <path fill="#2196f3"
                d="M12.961 20.267h-.007a1.6 1.6 0 0 0-.003 3.2h.007a1.6 1.6 0 0 0 .002-3.2zm.373 1.978a.534.534 0 1 1-.378-.912.533.533 0 0 1 .374.911h.005z"
                style="fill:var(--color1, #2196f3)" />
        </symbol>


        <!-- backdrop -->
        <symbol viewBox="0 0 24 24" id="telegram">
            <path
                d="M24 2L0 13.25L7.66994 15.6172L19.5 6.375L10.5017 16.4913L10.509 16.4936L10.5 16.4913V22L14.8013 17.8183L20.2501 19.5L24 2Z"
                fill="white" />
        </symbol>


        <symbol viewBox="0 0 18 18" id="name">
            <g clip-path="url(#clip0_654505_1112)">
                <path
                    d="M9 9C10.6575 9 12 7.6575 12 6C12 4.3425 10.6575 3 9 3C7.3425 3 6 4.3425 6 6C6 7.6575 7.3425 9 9 9ZM9 10.5C6.9975 10.5 3 11.505 3 13.5V14.25C3 14.6625 3.3375 15 3.75 15H14.25C14.6625 15 15 14.6625 15 14.25V13.5C15 11.505 11.0025 10.5 9 10.5Z"
                    fill="#4D5AE5" />
            </g>
            <defs>
                <clipPath id="clip0_654505_1112">
                    <rect width="18" height="18" fill="white" />
                </clipPath>
            </defs>
        </symbol>


        <symbol viewBox="0 0 18 24" id="phone">
            <g clip-path="url(#clip0_297083_8305)">
                <path
                    d="M14.7263 13.8651L12.8881 13.6552C12.4467 13.6046 12.0125 13.7566 11.7013 14.0677L10.3697 15.3993C8.3217 14.3572 6.64276 12.6855 5.60067 10.6303L6.93947 9.29144C7.25065 8.98025 7.40263 8.54605 7.35197 8.1046L7.1421 6.28092C7.05526 5.55 6.44013 5 5.70198 5H4.45002C3.63226 5 2.952 5.68026 3.00266 6.49802C3.38621 12.6783 8.32894 17.6138 14.5019 17.9973C15.3197 18.048 15.9999 17.3677 15.9999 16.55V15.298C16.0072 14.5671 15.4572 13.952 14.7263 13.8651Z"
                    fill="#2E2F42" />
            </g>
            <defs>
                <clipPath id="clip0_297083_8305">
                    <rect width="18" height="24" fill="white" />
                </clipPath>
            </defs>
        </symbol>

        <symbol viewBox="0 0 18 24" id="email">
            <g clip-path="url(#clip0_297083_8311)">
                <path
                    d="M15 6H3C2.175 6 1.5075 6.675 1.5075 7.5L1.5 16.5C1.5 17.325 2.175 18 3 18H15C15.825 18 16.5 17.325 16.5 16.5V7.5C16.5 6.675 15.825 6 15 6ZM14.7 9.1875L9.3975 12.5025C9.1575 12.6525 8.8425 12.6525 8.6025 12.5025L3.3 9.1875C3.1125 9.0675 3 8.865 3 8.6475C3 8.145 3.5475 7.845 3.975 8.1075L9 11.25L14.025 8.1075C14.4525 7.845 15 8.145 15 8.6475C15 8.865 14.8875 9.0675 14.7 9.1875Z"
                    fill="#2E2F42" />
            </g>
            <defs>
                <clipPath id="clip0_297083_8311">
                    <rect width="18" height="24" fill="white" />
                </clipPath>
            </defs>
        </symbol>
    </defs>
</svg>